<svg width="512" height="512" viewBox="0 0 512 512" fill="none" xmlns="http://www.w3.org/2000/svg">
  <!-- Background using johnsy.com colours -->
  <rect width="512" height="512" rx="115" fill="#fdf6e3"/>
  
  <!-- QR code pattern representation -->
  <g transform="translate(128, 128)">
    <!-- Finder pattern (top-left) -->
    <rect x="0" y="0" width="64" height="64" fill="#2aa198"/>
    <rect x="16" y="16" width="32" height="32" fill="#fdf6e3"/>
    <rect x="32" y="32" width="16" height="16" fill="#2aa198"/>
    
    <!-- Finder pattern (top-right) -->
    <rect x="192" y="0" width="64" height="64" fill="#2aa198"/>
    <rect x="208" y="16" width="32" height="32" fill="#fdf6e3"/>
    <rect x="224" y="32" width="16" height="16" fill="#2aa198"/>
    
    <!-- Finder pattern (bottom-left) -->
    <rect x="0" y="192" width="64" height="64" fill="#2aa198"/>
    <rect x="16" y="208" width="32" height="32" fill="#fdf6e3"/>
    <rect x="32" y="224" width="16" height="16" fill="#2aa198"/>
    
    <!-- Data modules -->
    <rect x="80" y="0" width="16" height="16" fill="#839496"/>
    <rect x="112" y="0" width="16" height="16" fill="#839496"/>
    <rect x="144" y="0" width="16" height="16" fill="#839496"/>
    <rect x="176" y="0" width="16" height="16" fill="#839496"/>
    
    <rect x="0" y="80" width="16" height="16" fill="#839496"/>
    <rect x="32" y="80" width="16" height="16" fill="#839496"/>
    <rect x="80" y="80" width="16" height="16" fill="#839496"/>
    <rect x="112" y="80" width="16" height="16" fill="#839496"/>
    <rect x="144" y="80" width="16" height="16" fill="#839496"/>
    <rect x="176" y="80" width="16" height="16" fill="#839496"/>
    
    <rect x="80" y="112" width="16" height="16" fill="#839496"/>
    <rect x="144" y="112" width="16" height="16" fill="#839496"/>
    <rect x="176" y="112" width="16" height="16" fill="#839496"/>
    
    <rect x="0" y="144" width="16" height="16" fill="#839496"/>
    <rect x="32" y="144" width="16" height="16" fill="#839496"/>
    <rect x="80" y="144" width="16" height="16" fill="#839496"/>
    <rect x="112" y="144" width="16" height="16" fill="#839496"/>
    <rect x="144" y="144" width="16" height="16" fill="#839496"/>
    <rect x="176" y="144" width="16" height="16" fill="#839496"/>
    
    <rect x="0" y="176" width="16" height="16" fill="#839496"/>
    <rect x="48" y="176" width="16" height="16" fill="#839496"/>
    <rect x="80" y="176" width="16" height="16" fill="#839496"/>
    <rect x="112" y="176" width="16" height="16" fill="#839496"/>
    <rect x="144" y="176" width="16" height="16" fill="#839496"/>
    
    <rect x="80" y="192" width="16" height="16" fill="#839496"/>
    <rect x="112" y="192" width="16" height="16" fill="#839496"/>
    <rect x="144" y="192" width="16" height="16" fill="#839496"/>
    <rect x="176" y="192" width="16" height="16" fill="#839496"/>
    <rect x="208" y="192" width="16" height="16" fill="#839496"/>
    <rect x="240" y="192" width="16" height="16" fill="#839496"/>
    
    <rect x="80" y="224" width="16" height="16" fill="#839496"/>
    <rect x="112" y="224" width="16" height="16" fill="#839496"/>
    <rect x="144" y="224" width="16" height="16" fill="#839496"/>
    <rect x="176" y="224" width="16" height="16" fill="#839496"/>
    <rect x="208" y="224" width="16" height="16" fill="#839496"/>
    <rect x="240" y="224" width="16" height="16" fill="#839496"/>
    
    <rect x="80" y="256" width="16" height="16" fill="#839496"/>
    <rect x="144" y="256" width="16" height="16" fill="#839496"/>
    <rect x="176" y="256" width="16" height="16" fill="#839496"/>
    <rect x="208" y="256" width="16" height="16" fill="#839496"/>
    <rect x="240" y="256" width="16" height="16" fill="#839496"/>
  </g>
  
  <!-- QRTY text -->
  <text x="256" y="400" font-family="Verdana, serif" font-size="64" font-weight="bold" fill="#cb4b16" text-anchor="middle">QRTY</text>
</svg>

