<svg width="512" height="512" viewBox="0 0 512 512" fill="none" xmlns="http://www.w3.org/2000/svg">
  <rect width="512" height="512" rx="120" fill="#f5f5f5"/>
  <rect x="64" y="64" width="384" height="384" rx="48" fill="#fafafa" stroke="#1565C0" stroke-width="8"/>

  <!-- Accent arc -->
  <path d="M128 152 C128 108 196 96 256 96 C316 96 384 108 384 152" stroke="#1565C0" stroke-width="24" stroke-linecap="round" fill="none"/>

  <!-- Finder patterns -->
  <g fill="#1565C0">
    <rect x="116" y="176" width="104" height="104" rx="18"/>
    <rect x="292" y="176" width="104" height="104" rx="18"/>
    <rect x="116" y="312" width="104" height="104" rx="18"/>
  </g>
  <g fill="#fafafa">
    <rect x="144" y="204" width="48" height="48" rx="10"/>
    <rect x="320" y="204" width="48" height="48" rx="10"/>
    <rect x="144" y="340" width="48" height="48" rx="10"/>
  </g>

  <!-- Data modules -->
  <g>
    <rect x="248" y="208" width="28" height="28" rx="7" fill="#616161"/>
    <rect x="288" y="268" width="28" height="28" rx="7" fill="#616161"/>
    <rect x="224" y="320" width="28" height="28" rx="7" fill="#66BB6A"/>
    <rect x="276" y="348" width="28" height="28" rx="7" fill="#FFB300"/>
    <rect x="204" y="264" width="28" height="28" rx="7" fill="#66BB6A"/>
    <rect x="256" y="360" width="28" height="28" rx="7" fill="#616161"/>
    <rect x="312" y="316" width="20" height="20" rx="5" fill="#FFB300"/>
  </g>

  <!-- Accent ribbon -->
  <path d="M200 260 L312 260 C332 260 340 284 324 296 L244 356 C228 368 208 356 208 336 L208 288 C208 272 220 260 236 260 Z" fill="#66BB6A" opacity="0.18"/>

  <text x="256" y="418" font-family="'Atkinson Hyperlegible', 'Segoe UI', sans-serif" font-size="72" font-weight="700" fill="#1565C0" text-anchor="middle">QRTY</text>
</svg>

